<svg height="512pt" viewBox="0 0 512 512.00171" width="512pt" xmlns="http://www.w3.org/2000/svg"><path d="m429.859375 82.558594c-96.023437-96.019532-251.703125-96.019532-347.722656 0-96.019531 96.019531-96.019531 251.703125 0 347.722656s251.699219 96.019531 347.722656 0c96.019531-96.019531 96.019531-251.703125 0-347.722656zm0 0" fill="#ffcb7c"/><path d="m326.578125 326.574219-273.28125 158.777343c-17.292969 10.046876-36.695313-9.355468-26.648437-26.648437l158.777343-273.277344" fill="#fafafa"/><path d="m220.863281 220.863281-35.4375-35.4375 273.277344-158.777343c17.292969-10.046876 36.695313 9.355468 26.648437 26.648437l-158.773437 273.277344-35.203125-35.199219" fill="#f5737f"/><path d="m290.609375 221.386719c-19.113281-19.117188-50.109375-19.117188-69.226563 0-19.117187 19.117187-19.117187 50.109375 0 69.226562 19.117188 19.117188 50.113282 19.117188 69.226563 0 19.117187-19.117187 19.117187-50.109375 0-69.226562zm0 0" fill="#fafafa"/><path d="m465.121094 108.269531 28.984375-49.886719c6.847656-11.785156 4.972656-26.179687-4.667969-35.820312-9.636719-9.636719-24.035156-11.515625-35.820312-4.664062l-49.882813 28.980468c-47.992187-33.96875-106.589844-50.375-165.644531-46.253906-61.523438 4.289062-119.449219 30.695312-163.109375 74.355469-43.671875 43.675781-70.082031 101.617187-74.359375 163.160156-4.105469 59.042969 12.296875 117.617187 46.261718 165.59375l-28.984374 49.882813c-6.851563 11.785156-4.972657 26.179687 4.664062 35.820312 5.769531 5.769531 13.246094 8.757812 20.84375 8.757812 5.09375 0 10.246094-1.34375 14.976562-4.089843l49.890626-28.984375c43.140624 30.539062 94.863281 46.882812 147.765624 46.878906 6.109376 0 12.242188-.21875 18.371094-.65625 61.328125-4.394531 119.078125-30.789062 162.609375-74.320312 43.667969-43.667969 70.078125-101.605469 74.359375-163.136719 4.113282-59.054688-12.292968-117.636719-46.257812-165.617188zm-1.335938-72.867187c5.789063-3.363282 10.140625.28125 11.335938 1.476562 1.195312 1.195313 4.839844 5.546875 1.476562 11.332032l-152.167968 261.90625-20.117188-20.121094c6.984375-9.882813 10.761719-21.648438 10.761719-33.996094 0-15.78125-6.144531-30.617188-17.300781-41.773438-11.160157-11.15625-25.996094-17.300781-41.773438-17.300781-12.351562 0-24.113281 3.777344-33.996094 10.761719l-20.121094-20.117188zm-235.242187 193.140625c11.429687-11.429688 29.300781-14.597657 43.949219-7.71875 14.699218 6.902343 23.660156 22.660156 22.171874 38.808593-1.480468 16.046876-13.242187 29.90625-28.851562 33.953126-15.734375 4.078124-32.699219-2.285157-41.886719-15.683594-10.4375-15.214844-8.40625-36.335938 4.617188-49.359375 7.335937-7.332031-7.332031 7.335937 0 0zm-207.726563 11.003906c3.941406-56.671875 28.261719-110.03125 68.480469-150.25 40.207031-40.207031 93.550781-64.527344 150.199219-68.476563 51.273437-3.578124 102.136718 9.640626 144.804687 37.351563l-203.960937 118.5c-1.5.875-2.792969 2.167969-3.667969 3.667969l-118.5 203.960937c-27.703125-42.65625-40.917969-93.507812-37.355469-144.753906zm27.398438 237.050781c-5.789063 3.363282-10.140625-.277344-11.335938-1.476562-1.195312-1.195313-4.839844-5.546875-1.476562-11.332032l152.167968-261.902343 20.121094 20.117187c-6.988281 9.882813-10.765625 21.644532-10.765625 33.996094 0 15.78125 6.144531 30.617188 17.300781 41.773438 11.160157 11.15625 25.996094 17.300781 41.773438 17.300781 12.351562 0 24.113281-3.777344 33.996094-10.761719l20.121094 20.121094zm442.96875-204.121094c-3.945313 56.660157-28.265625 110.015626-68.476563 150.226563-40.089843 40.089844-93.269531 64.398437-149.742187 68.445313-51.398438 3.6875-102.460938-9.523438-145.261719-37.320313l203.957031-118.5c1.5-.871094 2.800782-2.164063 3.667969-3.667969l118.503906-203.960937c27.707031 42.664062 40.917969 93.523437 37.351563 144.777343zm0 0"/><path d="m131.519531 95.769531c-32.414062 24.25-57.386719 60.660157-76.339843 111.308594-4.539063 12.117187 14.402343 19.277344 18.957031 7.09375 17.554687-46.90625 40.292969-80.332031 69.511719-102.191406 10.40625-7.785157-1.703126-24.007813-12.128907-16.210938zm0 0"/><path d="m181.511719 79.90625c0-5.5-4.625-10.125-10.121094-10.125-5.5 0-10.125 4.625-10.125 10.125 0 5.34375 4.355469 9.863281 9.679687 10.101562 5.664063.25 10.566407-4.425781 10.566407-10.101562zm0 0"/></svg>