<?xml version="1.0" encoding="iso-8859-1"?>
<!-- Generator: Adobe Illustrator 19.0.0, SVG Export Plug-In . SVG Version: 6.00 Build 0)  -->
<svg xmlns="http://www.w3.org/2000/svg" xmlns:xlink="http://www.w3.org/1999/xlink" version="1.1" id="Layer_1" x="0px" y="0px" viewBox="0 0 512.037 512.037" style="enable-background:new 0 0 512.037 512.037;" xml:space="preserve" width="512" height="512">
<g>
	<g>
		<path style="fill:#FBC56D;" d="M313.042,250.581c-47.77-47.78,35.084,35.074-51.95-51.96c-21.34-21.34-55.8-26.27-79.97-8.19    c-10.423,7.829-17.95,18.245-22.32,30.25c-8.84,24.23-31.8,40.3-57.52,38.38l-0.41-0.03c-26.57-2.05-50.96,5.11-68.18,22.33    c-39.05,39.05-26.38,115.03,28.29,169.7c54.67,54.67,130.65,67.34,169.7,28.29c17.22-17.22,24.38-41.61,22.33-68.18l-0.03-0.41    c-1.92-25.72,14.15-48.68,38.38-57.52c9.01-3.28,17.23-8.37,24.18-15.32c0.17-0.17,0.33-0.33,0.5-0.51    C339.442,313.501,336.702,274.241,313.042,250.581z"/>
		<path style="fill:#FBC56D;" d="M496.172,44.151c7.81,7.81,7.81,20.48,0,28.29l-21.21,21.21c-7.81,7.81-20.47,7.81-28.29,0    l-28.28-28.28c-7.81-7.82-7.81-20.48,0-28.29l21.21-21.21c7.81-7.81,20.48-7.81,28.29,0L496.172,44.151z"/>
		
			<rect x="168.26" y="168.979" transform="matrix(0.7071 -0.7071 0.7071 0.7071 -39.002 283.7928)" style="fill:#C8866A;" width="309.614" height="39.994"/>
		<path style="fill:#697C86;" d="M216.542,366.211c-19.52,19.52-51.18,19.52-70.71,0c-19.52-19.53-19.52-51.19,0-70.71    c19.511-19.511,51.169-19.541,70.71,0C236.054,315.013,236.082,346.671,216.542,366.211z"/>
	</g>
	<g>
		<path d="M82.192,359.141c3.91-3.91,3.91-10.24,0-14.15c-3.9-3.9-10.23-3.9-14.14,0c-3.91,3.91-3.91,10.24,0,14.15    C71.962,363.041,78.292,363.041,82.192,359.141z"/>
		<path d="M53.911,458.132c27.903,27.902,62.044,46.398,96.134,52.082c32.167,5.363,64.654-0.738,87.708-23.792    c18.616-18.615,27.576-45.613,25.232-75.987l-0.03-0.418c-1.555-20.826,11.238-39.867,31.828-47.379    c10.627-3.869,19.989-9.806,27.83-17.646c0.214-0.215,0.417-0.419,0.629-0.642c26.623-27.266,25.227-72.485-3.126-100.837    l-4.575-4.58l132.35-132.36c11.306,5.383,25.038,3.253,34.142-5.852l21.209-21.21c11.726-11.724,11.727-30.707,0.001-42.433    L474.964,8.8c-11.725-11.725-30.708-11.725-42.433,0l-21.209,21.21c-9.215,9.214-11.163,22.986-5.852,34.142L273.122,196.509    l-4.959-4.959c-25.672-25.672-65.667-29.597-93.046-9.115c-11.456,8.603-20.45,20.373-25.709,34.818    c-7.513,20.597-26.548,33.384-47.389,31.835l-0.377-0.028c-30.407-2.35-57.404,6.613-76.02,25.23    C4.389,295.523-4.062,326.671,1.828,361.998C7.512,396.088,26.009,430.23,53.911,458.132z M209.472,302.573    c15.754,15.752,15.491,41.075-0.001,56.567c-15.59,15.592-40.968,15.592-56.566,0.002c-15.593-15.601-15.594-40.978-0.001-56.569    C168.391,287.082,193.71,286.811,209.472,302.573z M230.09,296.092c-1.93-2.705-4.084-5.268-6.477-7.661    c-2.393-2.394-4.956-4.547-7.66-6.477l202.44-202.44l14.137,14.137L230.09,296.092z M425.464,44.153l21.21-21.211    c3.902-3.9,10.231-3.915,14.147,0.001L489.1,51.222c3.893,3.893,3.924,10.223,0,14.147L467.89,86.58    c-3.896,3.896-10.241,3.896-14.147-0.001l-28.27-28.269c-0.003-0.003-0.006-0.007-0.009-0.01    c-0.001-0.001-0.002-0.002-0.003-0.002C421.568,54.391,421.568,48.048,425.464,44.153z M39.764,288.432    c14.628-14.63,35.49-21.348,60.373-19.429l0.402,0.03c29.855,2.232,57.042-15.826,67.661-44.932    c3.795-10.428,10.268-19.17,18.913-25.663c19.456-14.556,48.22-11.437,66.909,7.254l4.959,4.958l-62.251,62.242    c-20.543-5.504-42.694,0.262-57.968,15.537c-23.388,23.388-23.389,61.451,0.001,84.854c23.393,23.38,61.456,23.391,84.851-0.002    c15.274-15.275,21.043-37.423,15.537-57.967l62.248-62.24l4.572,4.577c20.66,20.66,21.972,53.302,2.925,72.765    c-0.04,0.04-0.08,0.082-0.119,0.123c-0.104,0.109-0.202,0.206-0.306,0.31c-5.76,5.761-12.667,10.133-20.535,12.997    c-29.1,10.616-47.154,37.806-44.926,67.65l0.032,0.443c1.917,24.846-4.802,45.711-19.431,60.339    c-16.539,16.539-41.498,23.009-70.276,18.207c-30.014-5.004-60.301-21.517-85.281-46.497c-24.98-24.98-41.493-55.267-46.497-85.28    C16.758,329.93,23.224,304.971,39.764,288.432z"/>
		<path d="M152.9,443.991c3.905,3.906,10.236,3.906,14.142,0.001c3.906-3.904,3.906-10.236,0.001-14.142l-56.56-56.57    c-3.905-3.905-10.236-3.905-14.142-0.001s-3.906,10.236-0.001,14.142L152.9,443.991z"/>
	</g>
</g>















</svg>
