<?xml version="1.0" encoding="iso-8859-1"?>
<!-- Generator: Adobe Illustrator 19.0.0, SVG Export Plug-In . SVG Version: 6.00 Build 0)  -->
<svg version="1.1" id="Capa_1" xmlns="http://www.w3.org/2000/svg" xmlns:xlink="http://www.w3.org/1999/xlink" x="0px" y="0px"
	 viewBox="0 0 512 512" style="enable-background:new 0 0 512 512;" xml:space="preserve">
<path style="fill:#FEB756;" d="M96.078,440.931C39.702,391.479,5.641,316.32,12.918,231.76C23.428,109.75,131.908,10,252.688,10
	h0.47c28.75,0.06,39.83,26.03,24.44,45.54c-41.212,52.251,4.676,111.923,68.115,103.768C588.786,128.062,533.715,502,257.928,502
	C196.508,502,139.634,479.137,96.078,440.931z"/>
<path style="fill:#FD3C65;" d="M188.918,245c-0.82,12.91-7.89,25.18-19.93,32.13c-19.13,11.05-89.28,5.36-89.28,5.36
	s30.15-63.59,49.28-74.64c12.3-7.1,26.8-6.93,38.53-0.81c6.51,3.39,12.17,8.62,16.11,15.45
	C187.718,229.58,189.398,237.4,188.918,245z"/>
<circle style="fill:#4DBBEB;" cx="127.92" cy="370.55" r="30"/>
<path style="fill:#FD3C65;" d="M496.738,42.2c9.67,16.74-41.67,65.01-118.77,113.82c-10.99,6.96-22.5,13.93-34.43,20.82
	c-20.22,11.67-40.03,22.18-58.81,31.32c-3.08-12.23-7.89-24.22-14.5-35.67c-6.46-11.19-14.24-21.15-23.03-29.8
	c7.44-5.03,15.21-10.1,23.24-15.16c10.59-6.68,21.65-13.36,33.1-19.97C399.198,52.33,485.698,23.07,496.738,42.2z"/>
<circle style="fill:#FFF5CD;" cx="427.92" cy="310.55" r="30"/>
<circle style="fill:#4DBBEB;" cx="347.92" cy="410.55" r="30"/>
<g>
	<path style="fill:#FFF5CD;" d="M270.228,172.49c6.61,11.45,11.42,23.44,14.5,35.67c-37.85,18.44-71.5,31.29-95.81,36.84
		c0.48-7.6-1.2-15.42-5.29-22.51c-3.94-6.83-9.6-12.06-16.11-15.45c17.02-18.26,44.91-40.89,79.68-64.35
		C255.988,151.34,263.768,161.3,270.228,172.49z"/>
	<circle style="fill:#FFF5CD;" cx="227.92" cy="430.55" r="30"/>
	<path style="fill:#FFF5CD;" d="M177.918,71.84c16.57,0,30,13.44,30,30c0,16.57-13.43,30-30,30s-30-13.43-30-30
		C147.918,85.28,161.348,71.84,177.918,71.84z"/>
</g>
<path d="M477.277,188.879c-18.07-20.216-42.668-33.33-72.124-38.681c28.915-19.512,53.855-38.931,71.637-55.875
	c27.109-25.831,36.199-43.983,28.609-57.122c-8.446-14.634-32.827-14.533-76.733,0.321c-37.097,12.55-83.311,34.347-130.127,61.377
	c-8.053,4.649-16.03,9.408-23.837,14.205c-6.09-16.463-2.391-34.713,10.749-51.371c9.607-12.18,11.752-27.65,5.599-40.375
	C284.6,8.021,270.442,0.036,253.159,0h-0.47c-61.006,0-120.677,24.071-168.02,67.779C37.267,111.541,8.247,169.473,2.956,230.902
	C-4.248,314.6,27.291,393.893,89.485,448.448C136.204,489.43,196.025,512,257.928,512c38.569,0,74.758-7.09,107.562-21.074
	c29.983-12.781,56.577-31.023,79.042-54.219c20.828-21.505,37.192-46.235,48.638-73.503c10.898-25.963,16.737-53.421,16.883-79.405
	C510.266,245.929,498.933,213.107,477.277,188.879z M308.539,116.22c43.286-24.992,86.39-45.577,121.373-57.964
	c38.51-13.635,54.277-12.745,57.953-10.985c-0.318,2.327-3.208,12.68-28.479,35.952c-21.102,19.433-51.917,42.286-86.768,64.349
	c-11.017,6.977-22.483,13.911-34.078,20.607c-15.985,9.226-31.958,17.853-47.635,25.752c-3.128-9.129-7.137-17.988-12.016-26.44
	c-4.729-8.191-10.214-15.881-16.345-22.996c4.339-2.844,8.754-5.688,13.229-8.507C286.356,129.313,297.38,122.662,308.539,116.22z
	 M197.948,232.324c-1.077-5.173-2.971-10.173-5.658-14.831c-2.547-4.415-5.742-8.362-9.435-11.766
	c15.49-14.949,37.292-32.269,62.964-49.988c5.96,6.661,11.244,13.947,15.749,21.75c4.659,8.07,8.409,16.558,11.218,25.313
	C244.55,216.193,218.64,226.402,197.948,232.324z M162.899,215.909c5.039,2.624,9.211,6.627,12.067,11.578
	c2.971,5.15,4.344,10.988,3.972,16.883c-0.64,10.057-6.228,19.065-14.952,24.101c-9.457,5.463-41.945,6.199-68.62,4.979
	c12.275-23.704,29.154-51.47,38.621-56.938C142.926,211.352,153.731,211.126,162.899,215.909z M257.928,492
	c-57.048,0-112.186-20.807-155.255-58.586C45.313,383.098,16.23,309.91,22.881,232.619C32.98,115.38,136.071,20,252.688,20h0.449
	c9.567,0.02,16.823,3.688,19.906,10.065c2.835,5.862,1.603,13.07-3.297,19.282c-18.5,23.456-22.782,50.679-12.225,74.561
	c-5.408,3.483-10.722,6.982-15.856,10.451c-0.024,0.016-0.048,0.032-0.071,0.048c-31.799,21.457-58.651,42.8-76.517,60.761
	c-13.55-4.631-28.438-3.281-41.092,4.023c-20.776,12.001-48.056,67.926-53.313,79.015c-1.408,2.968-1.267,6.439,0.375,9.284
	c1.643,2.845,4.578,4.702,7.852,4.968c5.527,0.448,21.222,1.58,38.691,1.58c21.198,0,45.006-1.668,56.396-8.247
	c12.338-7.122,20.89-19.022,23.852-32.702c24.523-6.437,56.564-19.03,91.266-35.937c19.443-9.463,39.439-20.112,59.435-31.652
	c10.134-5.852,20.153-11.886,29.89-17.971c82.693,2.258,111.933,61.232,111.623,116.157C489.488,383.869,400.58,492,257.928,492z"/>
<path d="M348.06,290.205c0.809-5.463-2.964-10.548-8.427-11.357c-5.459-0.811-10.548,2.964-11.357,8.427
	c-2.733,18.455-18.333,33.761-41.729,40.945c-25.007,7.679-59.718,5.105-80.893-17.954c-3.736-4.068-10.062-4.336-14.129-0.602
	c-4.068,3.736-4.337,10.062-0.602,14.129c12.258,13.349,28.907,22.447,48.147,26.31c6.794,1.364,13.842,2.041,20.936,2.041
	c10.958,0,22.024-1.615,32.412-4.805C323.369,337.836,344.17,316.478,348.06,290.205z"/>
<path d="M177.918,141.84c22.056,0,40-17.944,40-40s-17.944-40-40-40s-40,17.944-40,40S155.862,141.84,177.918,141.84z
	 M177.918,81.84c11.028,0,20,8.972,20,20s-8.972,20-20,20s-20-8.972-20-20S166.891,81.84,177.918,81.84z"/>
<path d="M127.918,330.55c-22.056,0-40,17.944-40,40s17.944,40,40,40s40-17.944,40-40S149.975,330.55,127.918,330.55z
	 M127.918,390.55c-11.028,0-20-8.972-20-20s8.972-20,20-20s20,8.972,20,20S138.946,390.55,127.918,390.55z"/>
<path d="M227.918,390.55c-22.056,0-40,17.944-40,40s17.944,40,40,40s40-17.944,40-40S249.975,390.55,227.918,390.55z
	 M227.918,450.55c-11.028,0-20-8.972-20-20s8.972-20,20-20s20,8.972,20,20S238.946,450.55,227.918,450.55z"/>
<path d="M347.918,370.55c-22.056,0-40,17.944-40,40s17.944,40,40,40s40-17.944,40-40S369.975,370.55,347.918,370.55z
	 M347.918,430.55c-11.028,0-20-8.972-20-20s8.972-20,20-20s20,8.972,20,20S358.946,430.55,347.918,430.55z"/>
<path d="M427.918,270.55c-22.056,0-40,17.944-40,40s17.944,40,40,40s40-17.944,40-40S449.975,270.55,427.918,270.55z
	 M427.918,330.55c-11.028,0-20-8.972-20-20s8.972-20,20-20s20,8.972,20,20S438.946,330.55,427.918,330.55z"/>
<circle cx="337.92" cy="236" r="10"/>
<g>
</g>
<g>
</g>
<g>
</g>
<g>
</g>
<g>
</g>
<g>
</g>
<g>
</g>
<g>
</g>
<g>
</g>
<g>
</g>
<g>
</g>
<g>
</g>
<g>
</g>
<g>
</g>
<g>
</g>
</svg>
