<?xml version="1.0" encoding="iso-8859-1"?>
<!-- Generator: Adobe Illustrator 19.0.0, SVG Export Plug-In . SVG Version: 6.00 Build 0)  -->
<svg xmlns="http://www.w3.org/2000/svg" xmlns:xlink="http://www.w3.org/1999/xlink" version="1.1" id="Layer_1" x="0px" y="0px" viewBox="0 0 512 512" style="enable-background:new 0 0 512 512;" xml:space="preserve" width="512" height="512">
<path style="fill-rule:evenodd;clip-rule:evenodd;fill:#EDEDED;" d="M41.584,252.869l213.24,204.106  c45.668,36.496,77.142,44.941,136.636,44.941h27.026c35.64,0,43.034-28.365,42.836-44.941l-86.294-0.113  c-39.605-0.057-68.36-18.447-87.426-36.356l-66.066-62.112l-70.032-65.824l-76.915-72.285  C59.205,225.525,46.939,234.791,41.584,252.869L41.584,252.869z"/>
<path style="fill-rule:evenodd;clip-rule:evenodd;fill:#7AC943;" d="M113.288,177.609l-38.699,42.674l76.915,72.285  c10.284-19.523,13.598-39.643,11.418-59.053c-2.975-26.467-16.233-51.6-35.951-72.003  C123.572,167.01,119.634,171.998,113.288,177.609L113.288,177.609z"/>
<path style="fill-rule:evenodd;clip-rule:evenodd;fill:#EDEDED;" d="M142.61,133.63c-7.395,12.072-11.021,20.431-15.639,27.883  c19.718,20.403,32.976,45.536,35.951,72.003c64.563,0,94.679,57.295,91.137,113.43c17.197-2.976,39.038-2.04,60.542,11.845  c33.316,21.506,43.94,28.563,119.467,25.02c-26.433-22.669-63.941-30.433-74.707-68.403l-9.009-31.709l-13.739-48.455L323.1,187.611  c-53.969,0.453-102.186,1.529-130.601-52.508c0-0.056-0.029-0.084-0.057-0.142C176.237,104.358,150.768,120.313,142.61,133.63  L142.61,133.63z"/>
<path style="fill-rule:evenodd;clip-rule:evenodd;fill:#FFA21F;" d="M162.922,233.516c2.181,19.41-1.134,39.529-11.418,59.053  l70.032,65.824c2.917-1.699,15.411-8.5,32.523-11.447C257.601,290.81,227.486,233.516,162.922,233.516L162.922,233.516z"/>
<path style="fill-rule:evenodd;clip-rule:evenodd;fill:#7AC943;" d="M254.059,346.945c-17.112,2.947-29.605,9.748-32.523,11.447  l66.066,62.112c19.065,17.909,47.821,36.3,87.426,36.356l86.294,0.113c1.954-38.226-10.398-58.74-27.254-73.164  c-75.527,3.542-86.151-3.515-119.467-25.02C293.098,344.905,271.256,343.97,254.059,346.945L254.059,346.945z"/>
<path style="fill-rule:evenodd;clip-rule:evenodd;fill:#FDD99B;" d="M284.656,10.084L252.785,53.24  c32.353,19.185,84.707,51.062,121.195,73.052l96.435-116.208H284.656z"/>
<path style="fill-rule:evenodd;clip-rule:evenodd;fill:#FFA21F;" d="M252.785,53.24l-37.65,51.005l-22.692,30.717  c0.028,0.058,0.057,0.086,0.057,0.142c28.415,54.037,76.632,52.961,130.601,52.508l50.88-61.319  C337.492,104.302,285.138,72.425,252.785,53.24L252.785,53.24z"/>
<g>
	<path d="M479.543,5.798C477.882,2.259,474.325,0,470.415,0h-185.76c-3.201,0-6.211,1.52-8.113,4.095l-31.774,43.036   c-0.056,0.072-0.11,0.146-0.164,0.222l-37.581,50.899l-14.469,19.587c-7.807-8.06-16.17-10.303-22.602-10.518   c-15.51-0.519-29.5,10.542-35.94,21.039c-4.235,6.911-7.243,12.577-9.896,17.578c-5.391,10.158-8.645,16.289-17.502,24.111   c-0.279,0.246-0.545,0.508-0.795,0.784l-37.037,40.841c-19.294,7.254-31.38,19.807-36.867,38.33   c-1.073,3.622-0.032,7.54,2.697,10.151l75.358,72.114c4.024,3.851,10.407,3.709,14.258-0.314c3.85-4.023,3.71-10.407-0.314-14.259   l-70.593-67.555c3.72-8.191,9.813-14.008,19.002-18.15l70.374,66.148c0.909,1.5,2.211,2.786,3.87,3.67   c0.021,0.012,0.043,0.019,0.065,0.029l65.099,61.189c0.168,0.361,0.353,0.719,0.568,1.065c1.189,1.919,2.925,3.289,4.879,4.056   l63.52,59.706c27.561,25.888,59.293,39.039,94.317,39.089l75.245,0.1c-1.105,5.366-3.418,11.682-8.206,16.527   c-5.415,5.479-13.345,8.259-23.568,8.259H391.46c-60.171,0-88.199-9.133-129.979-42.445l-78.619-75.702   c-4.012-3.861-10.396-3.741-14.259,0.271c-3.863,4.012-3.742,10.396,0.27,14.26l78.957,76.026c0.224,0.215,0.456,0.42,0.699,0.613   c24.141,19.293,44.613,30.979,66.377,37.89c20.433,6.488,43.327,9.257,76.554,9.257h27.026c15.814,0,28.57-4.794,37.914-14.252   c13.641-13.804,15.061-32.754,15.007-40.587c3.101-63.071-30.147-82.979-59.49-100.546c-19.635-11.755-36.593-21.907-42.854-43.961   L334.25,189.966L478.176,16.524C480.672,13.516,481.205,9.336,479.543,5.798z M223.246,110.235l32.233-43.657   c20.887,12.455,47.664,28.661,73.669,44.399c10.263,6.212,20.283,12.275,29.589,17.896l-40.407,48.693   c-49.448,0.417-88.928-0.019-113.919-41.838L223.246,110.235z M120.391,184.788c2.809-2.508,5.198-4.919,7.291-7.294   c14.345,17.555,22.825,36.746,25.159,56.081c0.004,0.727,0.088,1.432,0.238,2.114c1.304,13.391-0.352,26.817-5.044,39.789   L88.713,219.72L120.391,184.788z M244.244,338.647c-8.763,2.205-15.994,5.135-21.021,7.504l-59.439-55.87   c6.592-14.748,9.899-30.307,9.824-46.061c18.083,2.086,33.313,9.587,45.36,22.418C235.147,283.872,244.35,310.368,244.244,338.647z    M451.42,446.878l-76.377-0.102c-29.735-0.043-56.831-11.354-80.534-33.619l-55.167-51.854c3.95-1.449,8.632-2.881,13.842-3.938   c20.517-4.157,39.339-0.829,55.947,9.897l0.375,0.242c16.778,10.83,28.9,18.655,46.787,23.03c11.78,2.88,25.683,4.236,45.62,4.236   c8.357,0,17.785-0.24,28.549-0.705C442.664,405.56,450.975,420.92,451.42,446.878z M401.558,373.921   c0.383,0.229,0.763,0.456,1.145,0.686c-44.857,0.088-55.868-7.012-82.258-24.047l-0.374-0.241   c-19.383-12.52-38.86-15.7-55.668-14.772c-0.496-32.464-11.406-62.124-30.734-82.713c-16.179-17.233-37.503-27.181-62.064-29.066   c-0.175-0.921-0.335-1.844-0.534-2.766c-4.673-21.642-15.588-42.539-31.684-60.861c0.838-1.542,1.677-3.115,2.542-4.747   c2.516-4.74,5.368-10.114,9.274-16.489c3.476-5.667,11.357-11.635,18.075-11.424c5.284,0.177,10.093,4.32,14.293,12.318   c13.987,26.601,33.931,43.422,60.971,51.428c21.805,6.456,45.692,6.714,70.953,6.534l7.758,27.34l-31.359-0.139   c-0.015,0-0.03,0-0.045,0c-5.548,0-10.059,4.485-10.083,10.039c-0.025,5.57,4.47,10.105,10.039,10.13l37.178,0.165l8.019,28.26   l-31.339-0.139c-0.016,0-0.031,0-0.046,0c-5.548,0-10.059,4.485-10.083,10.039c-0.025,5.57,4.47,10.105,10.039,10.13l37.159,0.165   l6.927,24.411C358.105,347.908,380.196,361.132,401.558,373.921z M371.763,113.177c-10.022-6.051-20.948-12.662-32.172-19.455   c-25.33-15.331-51.389-31.101-72.073-43.448l22.227-30.104h159.197L371.763,113.177z"/>
	<path d="M153.075,345.146l-0.198-0.171c-4.218-3.638-10.585-3.166-14.223,1.053c-3.636,4.219-3.165,10.587,1.054,14.223   l0.198,0.171c1.905,1.644,4.248,2.446,6.58,2.446c2.832,0,5.648-1.186,7.643-3.499   C157.764,355.149,157.293,348.781,153.075,345.146z"/>
</g>















</svg>
